<svg width="188" height="188" viewBox="0 0 188 188" fill="none" xmlns="http://www.w3.org/2000/svg">
<path fill-rule="evenodd" clip-rule="evenodd" d="M94 188C145.915 188 188 145.915 188 94C188 42.0852 145.915 0 94 0C42.0852 0 0 42.0852 0 94C0 145.915 42.0852 188 94 188ZM89.3639 171.903C129.02 172.879 147.312 166.869 147.312 135.983C145.923 110.403 137.938 100.241 129.72 91.1302C127.452 88.616 125.019 86.3223 122.527 83.9732C110.408 72.5469 96.8972 59.8081 94.1574 14C93.7525 16.7972 93.4882 19.8831 93.2041 23.2001C93.0826 24.6175 92.9576 26.0772 92.8165 27.5745C91.2828 43.8057 87.8455 64.4958 66.5673 84.0502C49.5072 99.7262 41 108.816 41 135.983C41 158.397 54.3793 168.679 79.1861 171.272C82.3878 171.607 85.782 171.817 89.3639 171.903Z" fill="white"/>
</svg>
